<mxfile host="Electron" modified="2024-06-26T16:20:28.259Z" agent="Mozilla/5.0 (Windows NT 10.0; Win64; x64) AppleWebKit/537.36 (KHTML, like Gecko) draw.io/24.0.4 Chrome/120.0.6099.109 Electron/28.1.0 Safari/537.36" etag="HEgGvJ4pYQ8vLgMHIcmW" version="24.0.4" type="device">
  <diagram name="Página-1" id="TYqnOiQkAo8vhvHXoW1d">
    <mxGraphModel dx="1050" dy="621" grid="1" gridSize="10" guides="1" tooltips="1" connect="1" arrows="1" fold="1" page="1" pageScale="1" pageWidth="827" pageHeight="1169" math="0" shadow="0">
      <root>
        <mxCell id="0" />
        <mxCell id="1" parent="0" />
        <mxCell id="ZVbbmatE8bsUPmCZ8vto-2" value="Fluxo&amp;nbsp;" style="text;html=1;align=center;verticalAlign=middle;whiteSpace=wrap;rounded=0;" parent="1" vertex="1">
          <mxGeometry x="15" y="37.5" width="80" height="40" as="geometry" />
        </mxCell>
        <mxCell id="ZVbbmatE8bsUPmCZ8vto-17" value="" style="edgeStyle=orthogonalEdgeStyle;rounded=0;orthogonalLoop=1;jettySize=auto;html=1;" parent="1" source="ZVbbmatE8bsUPmCZ8vto-5" target="ZVbbmatE8bsUPmCZ8vto-16" edge="1">
          <mxGeometry relative="1" as="geometry" />
        </mxCell>
        <mxCell id="ZVbbmatE8bsUPmCZ8vto-5" value="" style="shape=actor;whiteSpace=wrap;html=1;" parent="1" vertex="1">
          <mxGeometry x="40" y="80" width="30" height="30" as="geometry" />
        </mxCell>
        <mxCell id="ZVbbmatE8bsUPmCZ8vto-19" value="" style="edgeStyle=orthogonalEdgeStyle;rounded=0;orthogonalLoop=1;jettySize=auto;html=1;" parent="1" source="ZVbbmatE8bsUPmCZ8vto-16" target="ZVbbmatE8bsUPmCZ8vto-18" edge="1">
          <mxGeometry relative="1" as="geometry" />
        </mxCell>
        <mxCell id="ZVbbmatE8bsUPmCZ8vto-16" value="Usuário entra&lt;div style=&quot;font-size: 10px;&quot;&gt;no site&lt;/div&gt;" style="whiteSpace=wrap;html=1;fontSize=10;" parent="1" vertex="1">
          <mxGeometry x="105" y="77.5" width="100" height="35" as="geometry" />
        </mxCell>
        <mxCell id="ZVbbmatE8bsUPmCZ8vto-20" style="edgeStyle=orthogonalEdgeStyle;rounded=0;orthogonalLoop=1;jettySize=auto;html=1;exitX=0.5;exitY=1;exitDx=0;exitDy=0;entryX=0.5;entryY=0;entryDx=0;entryDy=0;" parent="1" source="ZVbbmatE8bsUPmCZ8vto-18" target="ZVbbmatE8bsUPmCZ8vto-21" edge="1">
          <mxGeometry relative="1" as="geometry">
            <mxPoint x="311" y="200" as="targetPoint" />
          </mxGeometry>
        </mxCell>
        <mxCell id="ZVbbmatE8bsUPmCZ8vto-18" value="Precisa&lt;div style=&quot;font-size: 10px;&quot;&gt;de&amp;nbsp;&lt;/div&gt;&lt;div style=&quot;font-size: 10px;&quot;&gt;cadastro?&lt;/div&gt;" style="rhombus;whiteSpace=wrap;html=1;fontSize=10;" parent="1" vertex="1">
          <mxGeometry x="250" y="51.25" width="100" height="88.75" as="geometry" />
        </mxCell>
        <mxCell id="ZVbbmatE8bsUPmCZ8vto-22" style="edgeStyle=orthogonalEdgeStyle;rounded=0;orthogonalLoop=1;jettySize=auto;html=1;exitX=0.5;exitY=1;exitDx=0;exitDy=0;" parent="1" source="ZVbbmatE8bsUPmCZ8vto-21" edge="1">
          <mxGeometry relative="1" as="geometry">
            <mxPoint x="300" y="240" as="targetPoint" />
          </mxGeometry>
        </mxCell>
        <mxCell id="ZVbbmatE8bsUPmCZ8vto-21" value="Não" style="text;strokeColor=none;align=center;fillColor=none;html=1;verticalAlign=middle;whiteSpace=wrap;rounded=0;" parent="1" vertex="1">
          <mxGeometry x="270" y="170" width="60" height="30" as="geometry" />
        </mxCell>
        <mxCell id="HgXFJ2lgKdeykVNRf4jl-14" value="" style="edgeStyle=orthogonalEdgeStyle;rounded=0;orthogonalLoop=1;jettySize=auto;html=1;" parent="1" source="ZVbbmatE8bsUPmCZ8vto-29" target="ZVbbmatE8bsUPmCZ8vto-41" edge="1">
          <mxGeometry relative="1" as="geometry" />
        </mxCell>
        <mxCell id="ZVbbmatE8bsUPmCZ8vto-29" value="&lt;span style=&quot;font-size: 10px;&quot;&gt;Carrossel mostrando algumas obras&amp;nbsp;&lt;/span&gt;" style="rhombus;whiteSpace=wrap;html=1;" parent="1" vertex="1">
          <mxGeometry x="75" y="370" width="110" height="98.75" as="geometry" />
        </mxCell>
        <mxCell id="C8FAt5gLsii8Y8SwF_Z7-1" style="edgeStyle=orthogonalEdgeStyle;rounded=0;orthogonalLoop=1;jettySize=auto;html=1;entryX=0.5;entryY=0;entryDx=0;entryDy=0;" parent="1" source="ZVbbmatE8bsUPmCZ8vto-31" target="ZVbbmatE8bsUPmCZ8vto-33" edge="1">
          <mxGeometry relative="1" as="geometry">
            <mxPoint x="159.99999999999977" y="270" as="targetPoint" />
            <Array as="points">
              <mxPoint x="130" y="240" />
            </Array>
          </mxGeometry>
        </mxCell>
        <mxCell id="oy9a8r8WbqhsBFgIjeia-5" style="edgeStyle=none;curved=1;rounded=0;orthogonalLoop=1;jettySize=auto;html=1;entryX=0.5;entryY=0;entryDx=0;entryDy=0;fontSize=12;startSize=8;endSize=8;" parent="1" source="ZVbbmatE8bsUPmCZ8vto-31" target="oy9a8r8WbqhsBFgIjeia-2" edge="1">
          <mxGeometry relative="1" as="geometry" />
        </mxCell>
        <mxCell id="ZVbbmatE8bsUPmCZ8vto-31" value="&lt;font style=&quot;font-size: 10px;&quot;&gt;É direcionado&lt;/font&gt;&lt;div style=&quot;font-size: 10px;&quot;&gt;para pagina&lt;/div&gt;&lt;div style=&quot;font-size: 10px;&quot;&gt;inicial&lt;/div&gt;" style="rounded=0;whiteSpace=wrap;html=1;" parent="1" vertex="1">
          <mxGeometry x="250" y="220" width="100" height="40" as="geometry" />
        </mxCell>
        <mxCell id="ZVbbmatE8bsUPmCZ8vto-35" value="" style="edgeStyle=orthogonalEdgeStyle;rounded=0;orthogonalLoop=1;jettySize=auto;html=1;" parent="1" source="ZVbbmatE8bsUPmCZ8vto-33" target="ZVbbmatE8bsUPmCZ8vto-29" edge="1">
          <mxGeometry relative="1" as="geometry" />
        </mxCell>
        <mxCell id="ZVbbmatE8bsUPmCZ8vto-33" value="&lt;font style=&quot;font-size: 10px;&quot;&gt;Clica na aba&lt;/font&gt;&lt;div style=&quot;font-size: 10px;&quot;&gt;HighLights&lt;/div&gt;" style="rounded=0;whiteSpace=wrap;html=1;" parent="1" vertex="1">
          <mxGeometry x="80" y="290" width="100" height="40" as="geometry" />
        </mxCell>
        <mxCell id="ZVbbmatE8bsUPmCZ8vto-44" style="edgeStyle=orthogonalEdgeStyle;rounded=0;orthogonalLoop=1;jettySize=auto;html=1;exitX=0.5;exitY=1;exitDx=0;exitDy=0;" parent="1" source="ZVbbmatE8bsUPmCZ8vto-41" edge="1">
          <mxGeometry relative="1" as="geometry">
            <mxPoint x="130" y="670" as="targetPoint" />
            <Array as="points">
              <mxPoint x="130" y="650" />
              <mxPoint x="130" y="650" />
            </Array>
          </mxGeometry>
        </mxCell>
        <mxCell id="ZVbbmatE8bsUPmCZ8vto-41" value="É interativa" style="rhombus;whiteSpace=wrap;html=1;" parent="1" vertex="1">
          <mxGeometry x="90" y="542" width="80" height="84.5" as="geometry" />
        </mxCell>
        <mxCell id="ZVbbmatE8bsUPmCZ8vto-46" style="edgeStyle=orthogonalEdgeStyle;rounded=0;orthogonalLoop=1;jettySize=auto;html=1;" parent="1" edge="1">
          <mxGeometry relative="1" as="geometry">
            <mxPoint x="130.07" y="740" as="targetPoint" />
            <mxPoint x="130.1134782608695" y="710" as="sourcePoint" />
          </mxGeometry>
        </mxCell>
        <mxCell id="ZVbbmatE8bsUPmCZ8vto-45" value="Sim" style="text;html=1;align=center;verticalAlign=middle;whiteSpace=wrap;rounded=0;" parent="1" vertex="1">
          <mxGeometry x="101.5" y="677" width="60" height="30" as="geometry" />
        </mxCell>
        <mxCell id="ZVbbmatE8bsUPmCZ8vto-47" value="Há caixas de&amp;nbsp;&lt;div&gt;comentários&lt;/div&gt;&lt;div&gt;para maior&amp;nbsp;&lt;/div&gt;&lt;div&gt;interação e imerssão&lt;/div&gt;" style="whiteSpace=wrap;html=1;" parent="1" vertex="1">
          <mxGeometry x="472.5" y="1010" width="120" height="60" as="geometry" />
        </mxCell>
        <mxCell id="ZVbbmatE8bsUPmCZ8vto-54" value="Ao passar o mouse&lt;div&gt;por cima, aparecem&lt;/div&gt;&lt;div&gt;breves informações&lt;/div&gt;" style="whiteSpace=wrap;html=1;" parent="1" vertex="1">
          <mxGeometry x="97.5" y="750" width="120" height="60" as="geometry" />
        </mxCell>
        <mxCell id="ZVbbmatE8bsUPmCZ8vto-56" value="Há mais&amp;nbsp;&lt;div&gt;algo&lt;/div&gt;&lt;div&gt;interativo?&lt;/div&gt;" style="rhombus;whiteSpace=wrap;html=1;" parent="1" vertex="1">
          <mxGeometry x="80" y="830" width="95" height="90" as="geometry" />
        </mxCell>
        <mxCell id="ZVbbmatE8bsUPmCZ8vto-59" style="edgeStyle=orthogonalEdgeStyle;rounded=0;orthogonalLoop=1;jettySize=auto;html=1;" parent="1" edge="1">
          <mxGeometry relative="1" as="geometry">
            <mxPoint x="127.43" y="950" as="targetPoint" />
            <mxPoint x="127.47347826086951" y="920" as="sourcePoint" />
          </mxGeometry>
        </mxCell>
        <mxCell id="ZVbbmatE8bsUPmCZ8vto-60" value="Sim" style="text;html=1;align=center;verticalAlign=middle;whiteSpace=wrap;rounded=0;" parent="1" vertex="1">
          <mxGeometry x="97.5" y="950" width="60" height="30" as="geometry" />
        </mxCell>
        <mxCell id="ZVbbmatE8bsUPmCZ8vto-61" style="edgeStyle=orthogonalEdgeStyle;rounded=0;orthogonalLoop=1;jettySize=auto;html=1;" parent="1" edge="1">
          <mxGeometry relative="1" as="geometry">
            <mxPoint x="127.35999999999999" y="1010" as="targetPoint" />
            <mxPoint x="127.40347826086949" y="980" as="sourcePoint" />
          </mxGeometry>
        </mxCell>
        <mxCell id="ZVbbmatE8bsUPmCZ8vto-66" value="" style="edgeStyle=orthogonalEdgeStyle;rounded=0;orthogonalLoop=1;jettySize=auto;html=1;" parent="1" target="ZVbbmatE8bsUPmCZ8vto-65" edge="1">
          <mxGeometry relative="1" as="geometry">
            <mxPoint x="187.5" y="1040" as="sourcePoint" />
          </mxGeometry>
        </mxCell>
        <mxCell id="oy9a8r8WbqhsBFgIjeia-27" value="" style="edgeStyle=none;curved=1;rounded=0;orthogonalLoop=1;jettySize=auto;html=1;fontSize=12;startSize=8;endSize=8;" parent="1" source="ZVbbmatE8bsUPmCZ8vto-62" target="oy9a8r8WbqhsBFgIjeia-26" edge="1">
          <mxGeometry relative="1" as="geometry" />
        </mxCell>
        <mxCell id="ZVbbmatE8bsUPmCZ8vto-62" value="Ao clicar é&amp;nbsp;&lt;div&gt;redirecionado para&lt;/div&gt;&lt;div&gt;uma pagina especifica da obra.&lt;/div&gt;" style="whiteSpace=wrap;html=1;" parent="1" vertex="1">
          <mxGeometry x="97.5" y="1010" width="120" height="60" as="geometry" />
        </mxCell>
        <mxCell id="ZVbbmatE8bsUPmCZ8vto-63" style="edgeStyle=orthogonalEdgeStyle;rounded=0;orthogonalLoop=1;jettySize=auto;html=1;exitX=0.5;exitY=1;exitDx=0;exitDy=0;entryX=0.5;entryY=-0.013;entryDx=0;entryDy=0;entryPerimeter=0;" parent="1" edge="1">
          <mxGeometry relative="1" as="geometry">
            <mxPoint x="127.5" y="828.8300000000002" as="targetPoint" />
            <mxPoint x="127.5" y="810" as="sourcePoint" />
          </mxGeometry>
        </mxCell>
        <mxCell id="ZVbbmatE8bsUPmCZ8vto-70" style="edgeStyle=orthogonalEdgeStyle;rounded=0;orthogonalLoop=1;jettySize=auto;html=1;exitX=1;exitY=0.5;exitDx=0;exitDy=0;" parent="1" source="ZVbbmatE8bsUPmCZ8vto-65" edge="1">
          <mxGeometry relative="1" as="geometry">
            <mxPoint x="360" y="1040" as="targetPoint" />
          </mxGeometry>
        </mxCell>
        <mxCell id="ZVbbmatE8bsUPmCZ8vto-65" value="A pagina é&lt;div&gt;interativa&amp;nbsp;&lt;/div&gt;&lt;div&gt;também?&lt;/div&gt;" style="rhombus;whiteSpace=wrap;html=1;" parent="1" vertex="1">
          <mxGeometry x="230" y="990" width="110" height="100" as="geometry" />
        </mxCell>
        <mxCell id="ZVbbmatE8bsUPmCZ8vto-67" value="Sim" style="text;html=1;align=center;verticalAlign=middle;whiteSpace=wrap;rounded=0;" parent="1" vertex="1">
          <mxGeometry x="362.5" y="1030" width="40" height="15" as="geometry" />
        </mxCell>
        <mxCell id="ZVbbmatE8bsUPmCZ8vto-73" value="" style="endArrow=none;html=1;rounded=0;exitX=1;exitY=0.5;exitDx=0;exitDy=0;entryX=0.001;entryY=0.448;entryDx=0;entryDy=0;entryPerimeter=0;" parent="1" source="ZVbbmatE8bsUPmCZ8vto-67" target="ZVbbmatE8bsUPmCZ8vto-47" edge="1">
          <mxGeometry width="50" height="50" relative="1" as="geometry">
            <mxPoint x="372.5" y="1060" as="sourcePoint" />
            <mxPoint x="422.5" y="1010" as="targetPoint" />
          </mxGeometry>
        </mxCell>
        <mxCell id="oy9a8r8WbqhsBFgIjeia-1" value="" style="edgeStyle=orthogonalEdgeStyle;rounded=0;orthogonalLoop=1;jettySize=auto;html=1;" parent="1" source="oy9a8r8WbqhsBFgIjeia-2" edge="1">
          <mxGeometry relative="1" as="geometry">
            <mxPoint x="300" y="370" as="targetPoint" />
          </mxGeometry>
        </mxCell>
        <mxCell id="oy9a8r8WbqhsBFgIjeia-2" value="&lt;span style=&quot;font-size: 10px;&quot;&gt;Já esta na aba Home&lt;/span&gt;" style="rounded=0;whiteSpace=wrap;html=1;" parent="1" vertex="1">
          <mxGeometry x="250" y="290" width="100" height="40" as="geometry" />
        </mxCell>
        <mxCell id="HgXFJ2lgKdeykVNRf4jl-2" value="" style="edgeStyle=orthogonalEdgeStyle;rounded=0;orthogonalLoop=1;jettySize=auto;html=1;" parent="1" source="oy9a8r8WbqhsBFgIjeia-6" target="HgXFJ2lgKdeykVNRf4jl-1" edge="1">
          <mxGeometry relative="1" as="geometry" />
        </mxCell>
        <mxCell id="oy9a8r8WbqhsBFgIjeia-6" value="&lt;span style=&quot;font-size: 10px;&quot;&gt;Desce na página&lt;/span&gt;" style="rhombus;whiteSpace=wrap;html=1;" parent="1" vertex="1">
          <mxGeometry x="245" y="370" width="110" height="98.75" as="geometry" />
        </mxCell>
        <mxCell id="HgXFJ2lgKdeykVNRf4jl-8" value="" style="edgeStyle=orthogonalEdgeStyle;rounded=0;orthogonalLoop=1;jettySize=auto;html=1;" parent="1" source="oy9a8r8WbqhsBFgIjeia-7" target="oy9a8r8WbqhsBFgIjeia-10" edge="1">
          <mxGeometry relative="1" as="geometry" />
        </mxCell>
        <mxCell id="oy9a8r8WbqhsBFgIjeia-7" value="Clica no botão de localização" style="whiteSpace=wrap;html=1;" parent="1" vertex="1">
          <mxGeometry x="490" y="603.74" width="120" height="45" as="geometry" />
        </mxCell>
        <mxCell id="oy9a8r8WbqhsBFgIjeia-10" value="A localização da galeria e fotos são mostradas" style="whiteSpace=wrap;html=1;" parent="1" vertex="1">
          <mxGeometry x="630" y="603.74" width="120" height="45" as="geometry" />
        </mxCell>
        <mxCell id="oy9a8r8WbqhsBFgIjeia-22" value="" style="edgeStyle=none;curved=1;rounded=0;orthogonalLoop=1;jettySize=auto;html=1;fontSize=12;startSize=8;endSize=8;" parent="1" source="oy9a8r8WbqhsBFgIjeia-11" target="oy9a8r8WbqhsBFgIjeia-19" edge="1">
          <mxGeometry relative="1" as="geometry" />
        </mxCell>
        <mxCell id="oy9a8r8WbqhsBFgIjeia-11" value="Clica na aba&amp;nbsp;&lt;div&gt;About&lt;/div&gt;" style="whiteSpace=wrap;html=1;rounded=0;" parent="1" vertex="1">
          <mxGeometry x="395" y="290" width="105" height="40" as="geometry" />
        </mxCell>
        <mxCell id="oy9a8r8WbqhsBFgIjeia-16" style="edgeStyle=orthogonalEdgeStyle;rounded=0;orthogonalLoop=1;jettySize=auto;html=1;" parent="1" edge="1">
          <mxGeometry relative="1" as="geometry">
            <mxPoint x="450" y="289" as="targetPoint" />
            <mxPoint x="350" y="239" as="sourcePoint" />
            <Array as="points">
              <mxPoint x="450" y="240" />
            </Array>
          </mxGeometry>
        </mxCell>
        <mxCell id="oy9a8r8WbqhsBFgIjeia-18" style="edgeStyle=none;curved=1;rounded=0;orthogonalLoop=1;jettySize=auto;html=1;exitX=1;exitY=0.5;exitDx=0;exitDy=0;fontSize=12;startSize=8;endSize=8;" parent="1" source="oy9a8r8WbqhsBFgIjeia-11" target="oy9a8r8WbqhsBFgIjeia-11" edge="1">
          <mxGeometry relative="1" as="geometry" />
        </mxCell>
        <mxCell id="oy9a8r8WbqhsBFgIjeia-24" style="edgeStyle=none;curved=1;rounded=0;orthogonalLoop=1;jettySize=auto;html=1;entryX=0.5;entryY=0;entryDx=0;entryDy=0;fontSize=12;startSize=8;endSize=8;" parent="1" source="oy9a8r8WbqhsBFgIjeia-19" target="oy9a8r8WbqhsBFgIjeia-23" edge="1">
          <mxGeometry relative="1" as="geometry" />
        </mxCell>
        <mxCell id="oy9a8r8WbqhsBFgIjeia-19" value="&lt;span style=&quot;font-size: 10px;&quot;&gt;Desce na página&lt;/span&gt;" style="rhombus;whiteSpace=wrap;html=1;" parent="1" vertex="1">
          <mxGeometry x="392.5" y="370" width="110" height="98.75" as="geometry" />
        </mxCell>
        <mxCell id="oy9a8r8WbqhsBFgIjeia-23" value="Dados sobre a galeria e sobre o colecionador&amp;nbsp; são mostrados" style="whiteSpace=wrap;html=1;" parent="1" vertex="1">
          <mxGeometry x="376.25" y="495.01" width="142.5" height="55" as="geometry" />
        </mxCell>
        <mxCell id="oy9a8r8WbqhsBFgIjeia-29" value="" style="edgeStyle=none;curved=1;rounded=0;orthogonalLoop=1;jettySize=auto;html=1;fontSize=12;startSize=8;endSize=8;" parent="1" source="oy9a8r8WbqhsBFgIjeia-26" edge="1">
          <mxGeometry relative="1" as="geometry">
            <mxPoint x="161.90239043824704" y="1260" as="targetPoint" />
          </mxGeometry>
        </mxCell>
        <mxCell id="oy9a8r8WbqhsBFgIjeia-26" value="Ao descer a página se encontra a aba Gallery" style="rhombus;whiteSpace=wrap;html=1;" parent="1" vertex="1">
          <mxGeometry x="100" y="1109" width="115" height="111" as="geometry" />
        </mxCell>
        <mxCell id="oy9a8r8WbqhsBFgIjeia-33" value="Há caixas de&amp;nbsp;&lt;div&gt;comentários&lt;/div&gt;&lt;div&gt;para maior&amp;nbsp;&lt;/div&gt;&lt;div&gt;interação e imerssão&lt;/div&gt;" style="whiteSpace=wrap;html=1;" parent="1" vertex="1">
          <mxGeometry x="495" y="1520" width="120" height="60" as="geometry" />
        </mxCell>
        <mxCell id="oy9a8r8WbqhsBFgIjeia-38" value="Ao passar o mouse&lt;div&gt;por cima das obras, aparecem&lt;/div&gt;&lt;div&gt;breves informações&lt;/div&gt;" style="whiteSpace=wrap;html=1;" parent="1" vertex="1">
          <mxGeometry x="80" y="1260" width="172.5" height="60" as="geometry" />
        </mxCell>
        <mxCell id="oy9a8r8WbqhsBFgIjeia-40" value="Há mais&amp;nbsp;&lt;div&gt;algo&lt;/div&gt;&lt;div&gt;interativo?&lt;/div&gt;" style="rhombus;whiteSpace=wrap;html=1;" parent="1" vertex="1">
          <mxGeometry x="102.5" y="1340" width="95" height="90" as="geometry" />
        </mxCell>
        <mxCell id="oy9a8r8WbqhsBFgIjeia-41" style="edgeStyle=orthogonalEdgeStyle;rounded=0;orthogonalLoop=1;jettySize=auto;html=1;" parent="1" edge="1">
          <mxGeometry relative="1" as="geometry">
            <mxPoint x="149.93" y="1460" as="targetPoint" />
            <mxPoint x="149.9734782608695" y="1430" as="sourcePoint" />
          </mxGeometry>
        </mxCell>
        <mxCell id="oy9a8r8WbqhsBFgIjeia-42" value="Sim" style="text;html=1;align=center;verticalAlign=middle;whiteSpace=wrap;rounded=0;" parent="1" vertex="1">
          <mxGeometry x="120" y="1460" width="60" height="30" as="geometry" />
        </mxCell>
        <mxCell id="oy9a8r8WbqhsBFgIjeia-43" style="edgeStyle=orthogonalEdgeStyle;rounded=0;orthogonalLoop=1;jettySize=auto;html=1;" parent="1" edge="1">
          <mxGeometry relative="1" as="geometry">
            <mxPoint x="149.85999999999999" y="1520" as="targetPoint" />
            <mxPoint x="149.9034782608695" y="1490" as="sourcePoint" />
          </mxGeometry>
        </mxCell>
        <mxCell id="oy9a8r8WbqhsBFgIjeia-44" value="" style="edgeStyle=orthogonalEdgeStyle;rounded=0;orthogonalLoop=1;jettySize=auto;html=1;" parent="1" target="oy9a8r8WbqhsBFgIjeia-49" edge="1">
          <mxGeometry relative="1" as="geometry">
            <mxPoint x="210" y="1550" as="sourcePoint" />
          </mxGeometry>
        </mxCell>
        <mxCell id="oy9a8r8WbqhsBFgIjeia-45" value="Ao clicar é&amp;nbsp;&lt;div&gt;redirecionado para&lt;/div&gt;&lt;div&gt;uma pagina especifica da obra.&lt;/div&gt;" style="whiteSpace=wrap;html=1;" parent="1" vertex="1">
          <mxGeometry x="120" y="1520" width="120" height="60" as="geometry" />
        </mxCell>
        <mxCell id="oy9a8r8WbqhsBFgIjeia-46" style="edgeStyle=orthogonalEdgeStyle;rounded=0;orthogonalLoop=1;jettySize=auto;html=1;exitX=0.5;exitY=1;exitDx=0;exitDy=0;entryX=0.5;entryY=-0.013;entryDx=0;entryDy=0;entryPerimeter=0;" parent="1" edge="1">
          <mxGeometry relative="1" as="geometry">
            <mxPoint x="150" y="1338.8300000000002" as="targetPoint" />
            <mxPoint x="150" y="1320" as="sourcePoint" />
          </mxGeometry>
        </mxCell>
        <mxCell id="oy9a8r8WbqhsBFgIjeia-47" style="edgeStyle=orthogonalEdgeStyle;rounded=0;orthogonalLoop=1;jettySize=auto;html=1;exitX=1;exitY=0.5;exitDx=0;exitDy=0;" parent="1" source="oy9a8r8WbqhsBFgIjeia-49" edge="1">
          <mxGeometry relative="1" as="geometry">
            <mxPoint x="375" y="1549.8297872340424" as="targetPoint" />
          </mxGeometry>
        </mxCell>
        <mxCell id="oy9a8r8WbqhsBFgIjeia-49" value="A pagina é&lt;div&gt;interativa&amp;nbsp;&lt;/div&gt;&lt;div&gt;também?&lt;/div&gt;" style="rhombus;whiteSpace=wrap;html=1;" parent="1" vertex="1">
          <mxGeometry x="247.5" y="1500" width="110" height="100" as="geometry" />
        </mxCell>
        <mxCell id="oy9a8r8WbqhsBFgIjeia-50" value="Sim" style="text;html=1;align=center;verticalAlign=middle;whiteSpace=wrap;rounded=0;" parent="1" vertex="1">
          <mxGeometry x="379" y="1540" width="40" height="15" as="geometry" />
        </mxCell>
        <mxCell id="oy9a8r8WbqhsBFgIjeia-51" value="" style="endArrow=none;html=1;rounded=0;exitX=1;exitY=0.5;exitDx=0;exitDy=0;entryX=0.001;entryY=0.448;entryDx=0;entryDy=0;entryPerimeter=0;" parent="1" source="oy9a8r8WbqhsBFgIjeia-50" target="oy9a8r8WbqhsBFgIjeia-33" edge="1">
          <mxGeometry width="50" height="50" relative="1" as="geometry">
            <mxPoint x="395" y="1570" as="sourcePoint" />
            <mxPoint x="445" y="1520" as="targetPoint" />
          </mxGeometry>
        </mxCell>
        <mxCell id="oy9a8r8WbqhsBFgIjeia-61" value="" style="edgeStyle=none;curved=1;rounded=0;orthogonalLoop=1;jettySize=auto;html=1;fontSize=12;startSize=8;endSize=8;" parent="1" source="oy9a8r8WbqhsBFgIjeia-56" target="oy9a8r8WbqhsBFgIjeia-60" edge="1">
          <mxGeometry relative="1" as="geometry" />
        </mxCell>
        <mxCell id="oy9a8r8WbqhsBFgIjeia-56" value="Clica na aba&amp;nbsp;&lt;div&gt;Contact&lt;/div&gt;" style="whiteSpace=wrap;html=1;rounded=0;" parent="1" vertex="1">
          <mxGeometry x="570" y="290" width="105" height="40" as="geometry" />
        </mxCell>
        <mxCell id="oy9a8r8WbqhsBFgIjeia-59" style="edgeStyle=orthogonalEdgeStyle;rounded=0;orthogonalLoop=1;jettySize=auto;html=1;" parent="1" edge="1">
          <mxGeometry relative="1" as="geometry">
            <mxPoint x="623" y="289" as="targetPoint" />
            <mxPoint x="350" y="239" as="sourcePoint" />
            <Array as="points">
              <mxPoint x="350" y="240" />
              <mxPoint x="623" y="240" />
              <mxPoint x="623" y="279" />
            </Array>
          </mxGeometry>
        </mxCell>
        <mxCell id="oy9a8r8WbqhsBFgIjeia-63" value="" style="edgeStyle=none;curved=1;rounded=0;orthogonalLoop=1;jettySize=auto;html=1;fontSize=12;startSize=8;endSize=8;" parent="1" source="oy9a8r8WbqhsBFgIjeia-60" target="oy9a8r8WbqhsBFgIjeia-62" edge="1">
          <mxGeometry relative="1" as="geometry" />
        </mxCell>
        <mxCell id="oy9a8r8WbqhsBFgIjeia-60" value="&lt;span style=&quot;font-size: 10px;&quot;&gt;Um formulário aparece&lt;/span&gt;" style="rhombus;whiteSpace=wrap;html=1;" parent="1" vertex="1">
          <mxGeometry x="567.5" y="370" width="110" height="98.75" as="geometry" />
        </mxCell>
        <mxCell id="oy9a8r8WbqhsBFgIjeia-62" value="Caso o usuário queira fazer contato, ele deve preencher os dados e escrever sua respectiva mensagem" style="whiteSpace=wrap;html=1;" parent="1" vertex="1">
          <mxGeometry x="543.75" y="495" width="157.5" height="77.49" as="geometry" />
        </mxCell>
        <mxCell id="HgXFJ2lgKdeykVNRf4jl-3" value="" style="edgeStyle=orthogonalEdgeStyle;rounded=0;orthogonalLoop=1;jettySize=auto;html=1;" parent="1" source="HgXFJ2lgKdeykVNRf4jl-1" edge="1">
          <mxGeometry relative="1" as="geometry">
            <mxPoint x="300" y="590" as="targetPoint" />
            <Array as="points">
              <mxPoint x="300" y="590" />
              <mxPoint x="300" y="590" />
            </Array>
          </mxGeometry>
        </mxCell>
        <mxCell id="HgXFJ2lgKdeykVNRf4jl-1" value="Aba About é mostrada" style="whiteSpace=wrap;html=1;" parent="1" vertex="1">
          <mxGeometry x="240" y="505.01" width="120" height="45" as="geometry" />
        </mxCell>
        <mxCell id="HgXFJ2lgKdeykVNRf4jl-6" style="edgeStyle=orthogonalEdgeStyle;rounded=0;orthogonalLoop=1;jettySize=auto;html=1;exitX=1;exitY=0.5;exitDx=0;exitDy=0;entryX=0;entryY=0.5;entryDx=0;entryDy=0;" parent="1" source="HgXFJ2lgKdeykVNRf4jl-4" target="HgXFJ2lgKdeykVNRf4jl-5" edge="1">
          <mxGeometry relative="1" as="geometry" />
        </mxCell>
        <mxCell id="HgXFJ2lgKdeykVNRf4jl-4" value="&lt;span style=&quot;font-size: 10px;&quot;&gt;Desce na página&lt;/span&gt;" style="rhombus;whiteSpace=wrap;html=1;" parent="1" vertex="1">
          <mxGeometry x="267.5" y="592.49" width="65" height="67.51" as="geometry" />
        </mxCell>
        <mxCell id="HgXFJ2lgKdeykVNRf4jl-7" value="" style="edgeStyle=orthogonalEdgeStyle;rounded=0;orthogonalLoop=1;jettySize=auto;html=1;" parent="1" source="HgXFJ2lgKdeykVNRf4jl-5" target="oy9a8r8WbqhsBFgIjeia-7" edge="1">
          <mxGeometry relative="1" as="geometry" />
        </mxCell>
        <mxCell id="HgXFJ2lgKdeykVNRf4jl-5" value="Aparece botão para mostrar localização" style="whiteSpace=wrap;html=1;" parent="1" vertex="1">
          <mxGeometry x="350" y="603.74" width="120" height="45" as="geometry" />
        </mxCell>
        <mxCell id="HgXFJ2lgKdeykVNRf4jl-12" value="" style="edgeStyle=orthogonalEdgeStyle;rounded=0;orthogonalLoop=1;jettySize=auto;html=1;" parent="1" source="HgXFJ2lgKdeykVNRf4jl-9" target="HgXFJ2lgKdeykVNRf4jl-11" edge="1">
          <mxGeometry relative="1" as="geometry">
            <Array as="points">
              <mxPoint x="754" y="370" />
              <mxPoint x="754" y="370" />
            </Array>
          </mxGeometry>
        </mxCell>
        <mxCell id="HgXFJ2lgKdeykVNRf4jl-9" value="Clica na aba Gallery" style="whiteSpace=wrap;html=1;rounded=0;" parent="1" vertex="1">
          <mxGeometry x="701.25" y="290" width="105" height="40" as="geometry" />
        </mxCell>
        <mxCell id="HgXFJ2lgKdeykVNRf4jl-10" style="edgeStyle=orthogonalEdgeStyle;rounded=0;orthogonalLoop=1;jettySize=auto;html=1;entryX=0.56;entryY=0;entryDx=0;entryDy=0;entryPerimeter=0;" parent="1" target="HgXFJ2lgKdeykVNRf4jl-9" edge="1">
          <mxGeometry relative="1" as="geometry">
            <mxPoint x="760" y="280" as="targetPoint" />
            <mxPoint x="360" y="240" as="sourcePoint" />
            <Array as="points">
              <mxPoint x="760" y="240" />
            </Array>
          </mxGeometry>
        </mxCell>
        <mxCell id="e72R_ZePA0VRQskgYmQU-3" style="edgeStyle=orthogonalEdgeStyle;rounded=0;orthogonalLoop=1;jettySize=auto;html=1;entryX=1;entryY=0.5;entryDx=0;entryDy=0;" edge="1" parent="1" source="HgXFJ2lgKdeykVNRf4jl-11" target="oy9a8r8WbqhsBFgIjeia-38">
          <mxGeometry relative="1" as="geometry">
            <Array as="points">
              <mxPoint x="790" y="1290" />
            </Array>
          </mxGeometry>
        </mxCell>
        <mxCell id="HgXFJ2lgKdeykVNRf4jl-11" value="Clicar na aba Gallery faz com que o usuário seja mandado para a página Gallery abaixo de Highlights" style="whiteSpace=wrap;html=1;" parent="1" vertex="1">
          <mxGeometry x="701.25" y="380.63" width="157.5" height="77.49" as="geometry" />
        </mxCell>
      </root>
    </mxGraphModel>
  </diagram>
</mxfile>
